# xmcd
#
# Track frame offsets: 
#        150
#        22944
#        46900
#        63704
#        79486
#        102595
#        120819
#        135513
#        155779
#        180154
#        198289
#        216376
#        237517
#        257929
#        275502
#
# Disc length: 3801 seconds
#
# Revision: 0
# Processed by: cddbd v1.5.2PL0 Copyright (c) Steve Scherf et al.
# Submitted via: ExactAudioCopy v1.3
#
DISCID=d70ed70f
DTITLE=Hildelgard 1530 - Sangre de America
DYEAR=1999
DGENRE=Folk
TTITLE0=Civilización
TTITLE1=Sangre de America
TTITLE2=Candomblè
TTITLE3=Glorioso San Antonio
TTITLE4=Yurima Warmichuri
TTITLE5=El Pituco - Amazonas Perù mix
TTITLE6=Churunmerù (ambientepui mix)
TTITLE7=Caribay
TTITLE8=Pasión y brujeria
TTITLE9=Canto Mapuche
TTITLE10=Esengo
TTITLE11=En el ocaso
TTITLE12=Ritual - Vudu - Santeria
TTITLE13=Yo vengo a ofrecer mi corazón
TTITLE14=Espiritus de Italaque
EXTD=
EXTT0=
EXTT1=
EXTT2=
EXTT3=
EXTT4=
EXTT5=
EXTT6=
EXTT7=
EXTT8=
EXTT9=
EXTT10=
EXTT11=
EXTT12=
EXTT13=
EXTT14=
PLAYORDER=
